# Blender v2.91.2 OBJ File: ''
# www.blender.org
mtllib portal.mtl
o Sphere
v 5.587363 10.555431 -1.871141
v 10.960017 20.705219 -5.993248
v 5.587363 21.980539 -5.993248
v 2.848407 11.205583 -1.871141
v 8.111595 31.910784 -14.495528
v 10.324103 40.614735 -31.245672
v -0.000014 41.410427 -31.245670
v -0.000013 32.535942 -14.495527
v -0.000012 22.411156 -5.993248
v -0.000012 11.425112 -1.871141
v -0.000013 0.000006 0.021200
v 23.813219 44.986931 -55.033463
v 26.459843 49.986809 -89.574394
v 13.489106 53.065708 -89.574394
v 12.139862 47.757862 -55.033463
v 14.319944 56.334255 -131.102356
v 14.600492 57.437931 -183.344131
v -0.000020 58.563194 -183.344131
v -0.000019 57.437893 -131.102356
v -0.000008 54.105331 -89.574394
v -0.000019 48.693485 -55.033463
v 28.089603 53.065716 -131.102356
v 28.639917 54.105347 -183.344131
v 15.911479 30.059301 -14.495528
v 20.251471 38.258228 -31.245672
v 38.413727 44.986942 -89.574394
v 40.779785 47.757893 -131.102356
v 23.099899 27.052660 -14.495528
v 29.400597 34.431503 -31.245672
v 8.111597 9.499634 -1.871141
v 15.911483 18.634195 -5.993249
v 34.571434 40.487179 -55.033463
v 37.419853 29.281595 -31.245672
v 44.001102 34.431507 -55.033466
v 51.902840 40.614758 -131.102371
v 52.919685 41.410465 -183.344147
v 41.578712 48.693539 -183.344131
v 48.891426 38.258240 -89.574394
v 10.324106 8.078777 -1.871142
v 20.251478 15.847082 -5.993249
v 29.400597 23.006405 -14.495529
v 51.739834 27.052673 -55.033466
v 57.490223 30.059315 -89.574394
v 61.031273 31.910803 -131.102371
v 12.139874 6.347458 -1.871142
v 62.226955 32.535995 -183.344208
v 44.001122 23.006409 -31.245674
v 34.571442 18.076014 -14.495553
v 23.813232 12.450979 -5.993250
v 13.489102 4.372204 -1.871142
v 26.459843 8.576380 -5.993250
v 63.879719 20.705227 -89.574402
v 67.814323 21.980562 -131.102371
v 38.413723 12.450980 -14.495554
v 48.891426 15.847090 -31.245691
v 57.490219 18.634209 -55.033508
v 14.319957 2.228934 -1.871143
v 28.089619 4.372205 -5.993251
v 69.142899 22.411200 -183.344208
v 40.779800 6.347460 -14.495555
v 61.031284 9.499645 -55.033512
v 67.814339 10.555441 -89.574402
v 71.991295 11.205611 -131.102371
v 73.401711 11.425152 -183.344208
v 51.902859 8.078782 -31.245691
v 41.578724 0.000011 -14.495556
v 52.919697 0.000014 -31.245693
v 62.226955 0.000018 -55.033512
v 69.142899 0.000019 -89.574402
v 73.401688 0.000035 -131.102371
v 74.839729 0.000044 -183.344208
v 28.089621 -4.372191 -5.993214
v 40.779804 -6.347442 -14.495534
v 28.639925 0.000007 -5.993252
v 71.991295 -11.205541 -131.102371
v 73.401711 -11.425066 -183.344208
v 61.031303 -9.499610 -55.033512
v 67.814339 -10.555408 -89.574402
v 51.902859 -8.078757 -31.245695
v 38.413738 -12.450963 -14.495558
v 48.891430 -15.847069 -31.245695
v 57.490231 -18.634174 -55.033474
v 63.879719 -20.705191 -89.574402
v 67.814339 -21.980497 -131.102371
v 69.142906 -22.411114 -183.344208
v 26.459846 -8.576372 -5.993253
v 13.489106 -4.372191 -1.871144
v 14.319957 -2.228922 -1.871143
v 51.739853 -27.052647 -55.033516
v 57.490231 -30.059280 -89.574409
v 34.571449 -18.075994 -14.495536
v 44.001125 -23.006384 -31.245731
v 61.031284 -31.910746 -131.102371
v 12.139875 -6.347446 -1.871144
v 62.226971 -32.535904 -183.344208
v 23.813238 -12.450970 -5.993290
v 20.251484 -15.847075 -5.993254
v 29.400602 -23.006390 -14.495598
v 14.600500 0.000006 -1.871143
v 44.001125 -34.431480 -55.033516
v 48.891426 -38.258209 -89.574409
v 51.902859 -40.614693 -131.102371
v 37.419865 -29.281576 -31.245714
v 52.919704 -41.410378 -183.344208
v 10.324109 -8.078766 -1.871144
v 8.111599 -9.499625 -1.871145
v 15.911487 -18.634186 -5.993255
v 23.099909 -27.052656 -14.495584
v 29.400602 -34.431488 -31.245699
v 34.571449 -40.487164 -55.033520
v 38.413727 -44.986912 -89.574409
v 40.779800 -47.757832 -131.102386
v 41.578728 -48.693451 -183.344223
v 5.587364 -10.555420 -1.871145
v 10.960022 -20.705210 -5.993255
v 28.089619 -53.065670 -131.102386
v 28.639925 -54.105282 -183.344223
v 23.813234 -44.986919 -55.033520
v 26.459846 -49.986778 -89.574409
v 15.911487 -30.059294 -14.495584
v 20.251484 -38.258221 -31.245714
v 12.139875 -47.757858 -55.033543
v 13.489106 -53.065678 -89.574486
v 2.848408 -11.205574 -1.871145
v 10.324111 -40.614727 -31.245714
v 8.111601 -31.910780 -14.495599
v 14.319959 -56.334217 -131.102386
v 14.600500 -57.437851 -183.344223
v 5.587365 -21.980532 -5.993256
v -0.000013 -57.437866 -131.102386
v -0.000013 -58.563129 -183.344330
v -0.000013 -48.693489 -55.033543
v -0.000013 -54.105301 -89.574409
v -0.000003 -32.535912 -14.495600
v -0.000001 -41.410397 -31.245701
v -0.000007 -22.411135 -5.993292
v -0.000013 -11.425105 -1.871145
v -10.324133 40.614735 -31.245672
v -8.111620 31.910776 -14.495528
v -5.587386 21.980536 -5.993248
v -2.848431 11.205583 -1.871141
v -12.139901 47.757862 -55.033463
v -14.600531 57.437931 -183.344131
v -14.319980 56.334244 -131.102356
v -13.489121 53.065708 -89.574394
v -26.459856 49.986809 -89.574394
v -23.813250 44.986919 -55.033463
v -5.587386 10.555427 -1.871141
v -15.911502 30.059301 -14.495528
v -10.960039 20.705214 -5.993248
v -28.089634 53.065697 -131.102356
v -20.251501 38.258228 -31.245672
v -28.639954 54.105347 -183.344131
v -29.400620 34.431496 -31.245672
v -23.099920 27.052658 -14.495528
v -15.911502 18.634190 -5.993249
v -8.111619 9.499629 -1.871141
v -34.571457 40.487164 -55.033463
v -41.578754 48.693523 -183.344131
v -40.779812 47.757874 -131.102356
v -38.413746 44.986938 -89.574394
v -48.891438 38.258236 -89.574394
v -44.001125 34.431480 -55.033466
v -10.324127 8.078771 -1.871142
v -29.400608 23.006393 -14.495552
v -20.251495 15.847076 -5.993249
v -51.902866 40.614738 -131.102371
v -37.419876 29.281586 -31.245672
v -52.919724 41.410450 -183.344147
v -44.001133 23.006397 -31.245674
v -34.571457 18.076004 -14.495553
v -23.813242 12.450968 -5.993250
v -12.139893 6.347454 -1.871142
v -51.739845 27.052652 -55.033466
v -62.226982 32.535969 -183.344208
v -61.031303 31.910788 -131.102371
v -57.490234 30.059315 -89.574394
v -63.879738 20.705233 -89.574402
v -57.490223 18.634192 -55.033508
v -13.489121 4.372204 -1.871142
v -38.413738 12.450969 -14.495554
v -26.459852 8.576374 -5.993250
v -67.814339 21.980537 -131.102371
v -48.891441 15.847080 -31.245691
v -69.142914 22.411182 -183.344208
v -28.089624 4.372199 -5.993251
v -14.319972 2.228934 -1.871143
v -61.031284 9.499627 -55.033512
v -51.902870 8.078771 -31.245691
v -73.401718 11.425135 -183.344208
v -71.991295 11.205590 -131.102371
v -67.814354 10.555447 -89.574402
v -40.779812 6.347456 -14.495555
v -14.600517 0.000006 -1.871143
v -41.578728 0.000005 -14.495556
v -28.639925 0.000001 -5.993252
v -73.401688 0.000018 -131.102371
v -69.142914 0.000024 -89.574402
v -52.919704 0.000005 -31.245693
v -62.226955 0.000006 -55.033512
v -74.839729 0.000030 -183.344208
v -61.031273 -9.499617 -55.033512
v -51.902870 -8.078761 -31.245680
v -73.401703 -11.425076 -183.344208
v -71.991295 -11.205555 -131.102371
v -67.814354 -10.555401 -89.574402
v -14.319972 -2.228922 -1.871143
v -40.779808 -6.347442 -14.495557
v -28.089621 -4.372191 -5.993252
v -38.413727 -12.450960 -14.495558
v -26.459848 -8.576366 -5.993253
v -67.814308 -21.980499 -131.102371
v -63.879723 -20.705181 -89.574402
v -48.891438 -15.847071 -31.245695
v -13.489121 -4.372191 -1.871144
v -57.490211 -18.634171 -55.033516
v -69.142899 -22.411118 -183.344208
v -51.739826 -27.052633 -55.033516
v -44.001125 -23.006382 -31.245697
v -62.226955 -32.535904 -183.344208
v -61.031269 -31.910738 -131.102371
v -57.490231 -30.059269 -89.574409
v -12.139893 -6.347441 -1.871144
v -34.571442 -18.075987 -14.495559
v -23.813234 -12.450961 -5.993254
v -37.419872 -29.281565 -31.245714
v -29.400599 -23.006376 -14.495584
v -20.251486 -15.847061 -5.993254
v -10.324126 -8.078760 -1.871144
v -44.001102 -34.431465 -55.033516
v -52.919674 -41.410374 -183.344208
v -51.902836 -40.614677 -131.102371
v -48.891438 -38.258194 -89.574409
v -38.413738 -44.986893 -89.574409
v -34.571426 -40.487137 -55.033520
v -8.111617 -9.499618 -1.871145
v -23.099905 -27.052631 -14.495561
v -15.911494 -18.634176 -5.993216
v -40.779785 -47.757801 -131.102386
v -29.400602 -34.431477 -31.245714
v -41.578712 -48.693436 -183.344223
v -20.251486 -38.258209 -31.245733
v -15.911489 -30.059273 -14.495584
v -10.960032 -20.705191 -5.993255
v -5.587383 -10.555415 -1.871145
v -23.813219 -44.986881 -55.033520
v -28.639914 -54.105236 -183.344223
v -28.089600 -53.065620 -131.102386
v -26.459852 -49.986755 -89.574409
v -13.489121 -53.065647 -89.574409
v -12.139870 -47.757816 -55.033520
v -2.848429 -11.205564 -1.871145
v -8.111609 -31.910749 -14.495584
v -5.587378 -21.980513 -5.993256
v -14.319949 -56.334156 -131.102386
v -10.324118 -40.614712 -31.245733
v -14.600497 -57.437817 -183.344223
vt 0.526957 0.565080
vt 0.549124 0.618596
vt 0.525043 0.625900
vt 0.513743 0.569089
vt 0.536357 0.682779
vt 0.547583 0.739215
vt 0.500000 0.743901
vt 0.500000 0.686360
vt 0.500000 0.628367
vt 0.500000 0.570442
vt 0.500000 0.500000
vt 0.617135 0.782790
vt 0.641688 0.842065
vt 0.572232 0.863133
vt 0.559715 0.800209
vt 0.584808 0.926360
vt 0.597543 0.990384
vt 0.500000 0.999991
vt 0.500000 0.934714
vt 0.500000 0.870249
vt 0.500000 0.806090
vt 0.666358 0.901622
vt 0.691338 0.961931
vt 0.571317 0.672174
vt 0.593336 0.725335
vt 0.705699 0.807851
vt 0.741513 0.861451
vt 0.603536 0.654953
vt 0.635504 0.702796
vt 0.539136 0.558571
vt 0.571317 0.606733
vt 0.670054 0.754504
vt 0.672464 0.672464
vt 0.716439 0.716439
vt 0.807389 0.807389
vt 0.853547 0.853547
vt 0.777780 0.915727
vt 0.761806 0.761806
vt 0.549811 0.549811
vt 0.590769 0.590769
vt 0.631776 0.631776
vt 0.754504 0.670054
vt 0.807851 0.705699
vt 0.861451 0.741513
vt 0.558571 0.539136
vt 0.915726 0.777779
vt 0.702796 0.635504
vt 0.654953 0.603536
vt 0.606733 0.571317
vt 0.565080 0.526957
vt 0.618596 0.549124
vt 0.842064 0.641688
vt 0.901622 0.666358
vt 0.672174 0.571317
vt 0.725335 0.593336
vt 0.782790 0.617135
vt 0.569089 0.513743
vt 0.625900 0.525043
vt 0.961931 0.691337
vt 0.682779 0.536357
vt 0.800209 0.559715
vt 0.863133 0.572232
vt 0.926360 0.584808
vt 0.990384 0.597544
vt 0.739215 0.547583
vt 0.686360 0.500000
vt 0.743901 0.500000
vt 0.806090 0.500000
vt 0.870248 0.500000
vt 0.934714 0.500000
vt 0.999991 0.500000
vt 0.625900 0.474956
vt 0.682779 0.463643
vt 0.628367 0.500000
vt 0.926360 0.415192
vt 0.990384 0.402456
vt 0.800209 0.440285
vt 0.863133 0.427768
vt 0.739215 0.452416
vt 0.672174 0.428683
vt 0.725335 0.406662
vt 0.782790 0.382865
vt 0.842064 0.358312
vt 0.901622 0.333642
vt 0.961931 0.308662
vt 0.618596 0.450876
vt 0.565080 0.473042
vt 0.569089 0.486257
vt 0.754504 0.329946
vt 0.807851 0.294301
vt 0.654953 0.396464
vt 0.702796 0.364496
vt 0.861451 0.258486
vt 0.558571 0.460864
vt 0.915727 0.222220
vt 0.606733 0.428683
vt 0.590769 0.409231
vt 0.631776 0.368223
vt 0.570442 0.500000
vt 0.716439 0.283561
vt 0.761806 0.238194
vt 0.807389 0.192611
vt 0.672464 0.327535
vt 0.853547 0.146452
vt 0.549811 0.450190
vt 0.539136 0.441429
vt 0.571317 0.393267
vt 0.603536 0.345047
vt 0.635504 0.297203
vt 0.670054 0.245494
vt 0.705699 0.192149
vt 0.741514 0.138549
vt 0.777780 0.084273
vt 0.526957 0.434920
vt 0.549124 0.381404
vt 0.666358 0.098377
vt 0.691338 0.038069
vt 0.617135 0.217210
vt 0.641688 0.157935
vt 0.571317 0.327826
vt 0.593336 0.274665
vt 0.559715 0.199791
vt 0.572232 0.136865
vt 0.513743 0.430910
vt 0.547583 0.260785
vt 0.536357 0.317221
vt 0.584808 0.073638
vt 0.597543 0.009616
vt 0.525043 0.374099
vt 0.500000 0.065286
vt 0.500000 0.000009
vt 0.500000 0.193909
vt 0.500000 0.129751
vt 0.500000 0.313640
vt 0.500000 0.256099
vt 0.500000 0.371633
vt 0.500000 0.429558
vt 0.452417 0.739215
vt 0.463643 0.682779
vt 0.474956 0.625900
vt 0.486257 0.569089
vt 0.440285 0.800209
vt 0.402456 0.990384
vt 0.415192 0.926360
vt 0.427768 0.863133
vt 0.358312 0.842065
vt 0.382865 0.782790
vt 0.473042 0.565080
vt 0.428683 0.672174
vt 0.450876 0.618596
vt 0.333642 0.901622
vt 0.406662 0.725335
vt 0.308662 0.961931
vt 0.364496 0.702796
vt 0.396464 0.654953
vt 0.428683 0.606733
vt 0.460864 0.558571
vt 0.329945 0.754504
vt 0.222220 0.915727
vt 0.258486 0.861450
vt 0.294301 0.807851
vt 0.238194 0.761806
vt 0.283561 0.716438
vt 0.450190 0.549811
vt 0.368223 0.631776
vt 0.409231 0.590769
vt 0.192611 0.807389
vt 0.327535 0.672464
vt 0.146452 0.853547
vt 0.297204 0.635504
vt 0.345047 0.603536
vt 0.393267 0.571317
vt 0.441429 0.539136
vt 0.245494 0.670054
vt 0.084273 0.777779
vt 0.138549 0.741513
vt 0.192149 0.705699
vt 0.157935 0.641688
vt 0.217210 0.617135
vt 0.434920 0.526957
vt 0.327826 0.571317
vt 0.381404 0.549124
vt 0.098377 0.666358
vt 0.274665 0.593336
vt 0.038069 0.691337
vt 0.374099 0.525043
vt 0.430910 0.513743
vt 0.199791 0.559715
vt 0.260785 0.547583
vt 0.009617 0.597544
vt 0.073639 0.584808
vt 0.136865 0.572232
vt 0.317221 0.536357
vt 0.429558 0.500000
vt 0.313640 0.500000
vt 0.371633 0.500000
vt 0.065287 0.500000
vt 0.129751 0.500000
vt 0.256099 0.500000
vt 0.193910 0.500000
vt 0.000009 0.500000
vt 0.199791 0.440285
vt 0.260785 0.452416
vt 0.009617 0.402456
vt 0.073639 0.415192
vt 0.136865 0.427768
vt 0.430910 0.486257
vt 0.317221 0.463643
vt 0.374099 0.474956
vt 0.327826 0.428683
vt 0.381404 0.450876
vt 0.098378 0.333642
vt 0.157935 0.358312
vt 0.274665 0.406662
vt 0.434920 0.473042
vt 0.217210 0.382865
vt 0.038069 0.308662
vt 0.245495 0.329946
vt 0.297204 0.364496
vt 0.084273 0.222220
vt 0.138549 0.258486
vt 0.192149 0.294301
vt 0.441429 0.460864
vt 0.345047 0.396464
vt 0.393267 0.428683
vt 0.327535 0.327536
vt 0.368223 0.368223
vt 0.409231 0.409231
vt 0.450190 0.450190
vt 0.283561 0.283561
vt 0.146453 0.146453
vt 0.192611 0.192611
vt 0.238194 0.238194
vt 0.294301 0.192149
vt 0.329946 0.245495
vt 0.460864 0.441429
vt 0.396464 0.345047
vt 0.428683 0.393267
vt 0.258486 0.138549
vt 0.364496 0.297204
vt 0.222220 0.084273
vt 0.406662 0.274665
vt 0.428683 0.327826
vt 0.450876 0.381404
vt 0.473042 0.434920
vt 0.382865 0.217210
vt 0.308662 0.038069
vt 0.333642 0.098377
vt 0.358312 0.157935
vt 0.427768 0.136865
vt 0.440285 0.199791
vt 0.486257 0.430910
vt 0.463643 0.317221
vt 0.474956 0.374099
vt 0.415192 0.073639
vt 0.452417 0.260785
vt 0.402457 0.009617
vn 0.0784 0.2442 0.9666
vn 0.1538 0.4764 0.8657
vn 0.0778 0.5020 0.8613
vn 0.0398 0.2583 0.9653
vn 0.1203 0.7700 0.6266
vn 0.1428 0.9127 0.3829
vn -0.0000 0.9248 0.3806
vn -0.0000 0.7814 0.6241
vn -0.0000 0.5106 0.8598
vn -0.0000 0.2630 0.9648
vn -0.0000 -0.0000 1.0000
vn 0.3017 0.9253 0.2298
vn 0.3075 0.9439 0.1207
vn 0.1535 0.9811 0.1181
vn 0.1507 0.9626 0.2252
vn 0.1543 0.9867 0.0511
vn 0.1544 0.9878 0.0217
vn -0.0000 0.9998 0.0215
vn -0.0000 0.9987 0.0507
vn -0.0000 0.9931 0.1173
vn -0.0000 0.9747 0.2236
vn 0.3093 0.9495 0.0522
vn 0.3096 0.9506 0.0222
vn 0.2392 0.7353 0.6341
vn 0.2854 0.8755 0.3900
vn 0.4617 0.8782 0.1249
vn 0.4645 0.8839 0.0540
vn 0.3548 0.6760 0.6459
vn 0.4264 0.8107 0.4012
vn 0.1144 0.2210 0.9685
vn 0.2258 0.4337 0.8723
vn 0.4523 0.8597 0.2373
vn 0.5626 0.7146 0.4157
vn 0.5995 0.7612 0.2472
vn 0.6174 0.7846 0.0565
vn 0.6181 0.7857 0.0240
vn 0.4650 0.8850 0.0230
vn 0.6132 0.7791 0.1304
vn 0.1467 0.1892 0.9709
vn 0.2915 0.3742 0.8804
vn 0.4637 0.5904 0.6606
vn 0.7368 0.6248 0.2583
vn 0.7553 0.6409 0.1366
vn 0.7611 0.6459 0.0592
vn 0.1737 0.1498 0.9733
vn 0.7621 0.6470 0.0252
vn 0.6878 0.5836 0.4317
vn 0.5610 0.4774 0.6763
vn 0.3479 0.2985 0.8888
vn 0.1943 0.1039 0.9754
vn 0.3918 0.2084 0.8961
vn 0.8761 0.4606 0.1426
vn 0.8834 0.4645 0.0619
vn 0.6397 0.3375 0.6906
vn 0.7918 0.4164 0.4468
vn 0.8526 0.4480 0.2689
vn 0.2073 0.0532 0.9768
vn 0.4199 0.1073 0.9012
vn 0.8847 0.4654 0.0263
vn 0.6917 0.1752 0.7006
vn 0.9318 0.2350 0.2767
vn 0.9590 0.2420 0.1471
vn 0.9676 0.2442 0.0639
vn 0.9692 0.2447 0.0272
vn 0.8620 0.2176 0.4578
vn 0.7099 0.0000 0.7043
vn 0.8870 0.0000 0.4618
vn 0.9601 0.0000 0.2796
vn 0.9889 0.0000 0.1488
vn 0.9979 0.0000 0.0646
vn 0.9996 0.0000 0.0275
vn 0.4199 -0.1073 0.9012
vn 0.6917 -0.1752 0.7006
vn 0.4296 0.0000 0.9030
vn 0.9676 -0.2442 0.0639
vn 0.9692 -0.2447 0.0272
vn 0.9318 -0.2350 0.2767
vn 0.9590 -0.2420 0.1471
vn 0.8620 -0.2176 0.4578
vn 0.6397 -0.3375 0.6906
vn 0.7918 -0.4164 0.4468
vn 0.8526 -0.4480 0.2689
vn 0.8761 -0.4606 0.1426
vn 0.8834 -0.4645 0.0619
vn 0.8847 -0.4654 0.0263
vn 0.3918 -0.2084 0.8961
vn 0.1943 -0.1039 0.9754
vn 0.2073 -0.0532 0.9768
vn 0.7368 -0.6248 0.2583
vn 0.7553 -0.6409 0.1366
vn 0.5610 -0.4774 0.6763
vn 0.6878 -0.5836 0.4317
vn 0.7611 -0.6459 0.0592
vn 0.1737 -0.1498 0.9733
vn 0.7621 -0.6470 0.0252
vn 0.3479 -0.2985 0.8888
vn 0.2915 -0.3742 0.8804
vn 0.4637 -0.5904 0.6606
vn 0.2117 0.0000 0.9773
vn 0.5995 -0.7612 0.2472
vn 0.6132 -0.7791 0.1304
vn 0.6174 -0.7846 0.0565
vn 0.5626 -0.7146 0.4157
vn 0.6181 -0.7857 0.0240
vn 0.1467 -0.1892 0.9709
vn 0.1144 -0.2210 0.9685
vn 0.2258 -0.4337 0.8723
vn 0.3548 -0.6760 0.6459
vn 0.4264 -0.8107 0.4012
vn 0.4523 -0.8597 0.2373
vn 0.4617 -0.8782 0.1249
vn 0.4645 -0.8839 0.0540
vn 0.4650 -0.8850 0.0230
vn 0.0784 -0.2442 0.9666
vn 0.1538 -0.4764 0.8657
vn 0.3093 -0.9495 0.0522
vn 0.3096 -0.9506 0.0222
vn 0.3017 -0.9253 0.2298
vn 0.3075 -0.9439 0.1207
vn 0.2392 -0.7353 0.6341
vn 0.2854 -0.8755 0.3900
vn 0.1507 -0.9626 0.2252
vn 0.1535 -0.9811 0.1181
vn 0.0398 -0.2583 0.9652
vn 0.1428 -0.9127 0.3829
vn 0.1203 -0.7700 0.6266
vn 0.1543 -0.9867 0.0511
vn 0.1544 -0.9878 0.0217
vn 0.0778 -0.5020 0.8613
vn -0.0000 -0.9987 0.0507
vn -0.0000 -0.9998 0.0215
vn -0.0000 -0.9747 0.2236
vn -0.0000 -0.9931 0.1173
vn -0.0000 -0.7814 0.6241
vn -0.0000 -0.9248 0.3806
vn -0.0000 -0.5106 0.8598
vn -0.0000 -0.2630 0.9648
vn -0.1428 0.9127 0.3829
vn -0.1203 0.7700 0.6266
vn -0.0778 0.5020 0.8613
vn -0.0398 0.2583 0.9653
vn -0.1507 0.9626 0.2252
vn -0.1544 0.9878 0.0217
vn -0.1543 0.9867 0.0511
vn -0.1535 0.9811 0.1181
vn -0.3075 0.9439 0.1207
vn -0.3017 0.9253 0.2298
vn -0.0784 0.2442 0.9666
vn -0.2392 0.7353 0.6341
vn -0.1538 0.4764 0.8657
vn -0.3093 0.9495 0.0522
vn -0.2854 0.8755 0.3900
vn -0.3096 0.9506 0.0222
vn -0.4264 0.8107 0.4012
vn -0.3548 0.6760 0.6459
vn -0.2258 0.4337 0.8723
vn -0.1144 0.2210 0.9685
vn -0.4523 0.8597 0.2373
vn -0.4650 0.8850 0.0230
vn -0.4645 0.8839 0.0540
vn -0.4617 0.8782 0.1249
vn -0.6132 0.7791 0.1304
vn -0.5995 0.7612 0.2472
vn -0.1467 0.1892 0.9709
vn -0.4637 0.5904 0.6606
vn -0.2915 0.3742 0.8804
vn -0.6174 0.7846 0.0565
vn -0.5626 0.7146 0.4157
vn -0.6181 0.7857 0.0240
vn -0.6878 0.5836 0.4317
vn -0.5610 0.4774 0.6763
vn -0.3479 0.2985 0.8888
vn -0.1737 0.1498 0.9733
vn -0.7368 0.6248 0.2583
vn -0.7621 0.6470 0.0252
vn -0.7611 0.6459 0.0592
vn -0.7553 0.6409 0.1366
vn -0.8761 0.4606 0.1426
vn -0.8526 0.4480 0.2689
vn -0.1943 0.1039 0.9754
vn -0.6397 0.3375 0.6906
vn -0.3918 0.2084 0.8961
vn -0.8834 0.4645 0.0619
vn -0.7918 0.4164 0.4468
vn -0.8847 0.4654 0.0263
vn -0.4199 0.1073 0.9012
vn -0.2073 0.0532 0.9768
vn -0.9318 0.2350 0.2767
vn -0.8620 0.2176 0.4578
vn -0.9692 0.2447 0.0272
vn -0.9676 0.2442 0.0639
vn -0.9590 0.2420 0.1471
vn -0.6917 0.1752 0.7006
vn -0.2117 -0.0000 0.9773
vn -0.7099 -0.0000 0.7043
vn -0.4296 -0.0000 0.9030
vn -0.9979 -0.0000 0.0646
vn -0.9889 -0.0000 0.1488
vn -0.8870 -0.0000 0.4618
vn -0.9601 -0.0000 0.2796
vn -0.9996 0.0000 0.0275
vn -0.9318 -0.2350 0.2767
vn -0.8620 -0.2176 0.4578
vn -0.9692 -0.2447 0.0272
vn -0.9676 -0.2442 0.0639
vn -0.9590 -0.2420 0.1471
vn -0.2073 -0.0532 0.9768
vn -0.6917 -0.1752 0.7006
vn -0.4199 -0.1073 0.9012
vn -0.6397 -0.3375 0.6906
vn -0.3918 -0.2084 0.8961
vn -0.8834 -0.4645 0.0619
vn -0.8761 -0.4606 0.1426
vn -0.7918 -0.4164 0.4468
vn -0.1943 -0.1039 0.9754
vn -0.8526 -0.4480 0.2689
vn -0.8847 -0.4654 0.0263
vn -0.7368 -0.6248 0.2583
vn -0.6878 -0.5836 0.4317
vn -0.7621 -0.6470 0.0252
vn -0.7611 -0.6459 0.0592
vn -0.7553 -0.6409 0.1366
vn -0.1737 -0.1498 0.9733
vn -0.5610 -0.4774 0.6763
vn -0.3479 -0.2985 0.8888
vn -0.5626 -0.7146 0.4157
vn -0.4637 -0.5904 0.6606
vn -0.2915 -0.3742 0.8804
vn -0.1467 -0.1892 0.9709
vn -0.5995 -0.7612 0.2472
vn -0.6181 -0.7857 0.0240
vn -0.6174 -0.7846 0.0565
vn -0.6132 -0.7791 0.1304
vn -0.4617 -0.8782 0.1249
vn -0.4523 -0.8597 0.2373
vn -0.1144 -0.2210 0.9685
vn -0.3548 -0.6760 0.6459
vn -0.2258 -0.4337 0.8723
vn -0.4645 -0.8839 0.0540
vn -0.4264 -0.8107 0.4012
vn -0.4650 -0.8850 0.0230
vn -0.2854 -0.8755 0.3900
vn -0.2392 -0.7353 0.6341
vn -0.1538 -0.4764 0.8657
vn -0.0784 -0.2442 0.9666
vn -0.3017 -0.9253 0.2298
vn -0.3096 -0.9506 0.0222
vn -0.3093 -0.9495 0.0522
vn -0.3075 -0.9439 0.1207
vn -0.1535 -0.9811 0.1181
vn -0.1507 -0.9626 0.2252
vn -0.0398 -0.2583 0.9652
vn -0.1203 -0.7700 0.6266
vn -0.0778 -0.5020 0.8613
vn -0.1543 -0.9867 0.0511
vn -0.1428 -0.9127 0.3829
vn -0.1544 -0.9878 0.0217
usemtl Material.001
s 1
f 1/1/1 2/2/2 3/3/3 4/4/4
f 5/5/5 6/6/6 7/7/7 8/8/8
f 4/4/4 3/3/3 9/9/9 10/10/10
f 11/11/11 4/4/4 10/10/10
f 12/12/12 13/13/13 14/14/14 15/15/15
f 16/16/16 17/17/17 18/18/18 19/19/19
f 15/15/15 14/14/14 20/20/20 21/21/21
f 22/22/22 23/23/23 17/17/17 16/16/16
f 2/2/2 24/24/24 5/5/5 3/3/3
f 13/13/13 22/22/22 16/16/16 14/14/14
f 24/24/24 25/25/25 6/6/6 5/5/5
f 11/11/11 1/1/1 4/4/4
f 26/26/26 27/27/27 22/22/22 13/13/13
f 25/25/25 12/12/12 15/15/15 6/6/6
f 28/28/28 29/29/29 25/25/25 24/24/24
f 11/11/11 30/30/30 1/1/1
f 30/30/30 31/31/31 2/2/2 1/1/1
f 31/31/31 28/28/28 24/24/24 2/2/2
f 32/32/32 26/26/26 13/13/13 12/12/12
f 29/29/29 32/32/32 12/12/12 25/25/25
f 33/33/33 34/34/34 32/32/32 29/29/29
f 35/35/35 36/36/36 37/37/37 27/27/27
f 27/27/27 37/37/37 23/23/23 22/22/22
f 34/34/34 38/38/38 26/26/26 32/32/32
f 11/11/11 39/39/39 30/30/30
f 38/38/38 35/35/35 27/27/27 26/26/26
f 40/40/40 41/41/41 28/28/28 31/31/31
f 41/41/41 33/33/33 29/29/29 28/28/28
f 42/42/42 43/43/43 38/38/38 34/34/34
f 43/43/43 44/44/44 35/35/35 38/38/38
f 39/39/39 40/40/40 31/31/31 30/30/30
f 11/11/11 45/45/45 39/39/39
f 44/44/44 46/46/46 36/36/36 35/35/35
f 47/47/47 42/42/42 34/34/34 33/33/33
f 48/48/48 47/47/47 33/33/33 41/41/41
f 49/49/49 48/48/48 41/41/41 40/40/40
f 50/50/50 51/51/51 49/49/49 45/45/45
f 52/52/52 53/53/53 44/44/44 43/43/43
f 45/45/45 49/49/49 40/40/40 39/39/39
f 54/54/54 55/55/55 47/47/47 48/48/48
f 56/56/56 52/52/52 43/43/43 42/42/42
f 11/11/11 50/50/50 45/45/45
f 57/57/57 58/58/58 51/51/51 50/50/50
f 55/55/55 56/56/56 42/42/42 47/47/47
f 51/51/51 54/54/54 48/48/48 49/49/49
f 53/53/53 59/59/59 46/46/46 44/44/44
f 58/58/58 60/60/60 54/54/54 51/51/51
f 61/61/61 62/62/62 52/52/52 56/56/56
f 62/62/62 63/63/63 53/53/53 52/52/52
f 63/63/63 64/64/64 59/59/59 53/53/53
f 60/60/60 65/65/65 55/55/55 54/54/54
f 66/66/66 67/67/67 65/65/65 60/60/60
f 11/11/11 57/57/57 50/50/50
f 65/65/65 61/61/61 56/56/56 55/55/55
f 68/68/68 69/69/69 62/62/62 61/61/61
f 70/70/70 71/71/71 64/64/64 63/63/63
f 72/72/72 73/73/73 66/66/66 74/74/74
f 75/75/75 76/76/76 71/71/71 70/70/70
f 74/74/74 66/66/66 60/60/60 58/58/58
f 77/77/77 78/78/78 69/69/69 68/68/68
f 67/67/67 68/68/68 61/61/61 65/65/65
f 79/79/79 77/77/77 68/68/68 67/67/67
f 80/80/80 81/81/81 79/79/79 73/73/73
f 81/81/81 82/82/82 77/77/77 79/79/79
f 83/83/83 84/84/84 75/75/75 78/78/78
f 84/84/84 85/85/85 76/76/76 75/75/75
f 82/82/82 83/83/83 78/78/78 77/77/77
f 86/86/86 80/80/80 73/73/73 72/72/72
f 87/87/87 86/86/86 72/72/72 88/88/88
f 11/11/11 87/87/87 88/88/88
f 69/69/69 70/70/70 63/63/63 62/62/62
f 89/89/89 90/90/90 83/83/83 82/82/82
f 91/91/91 92/92/92 81/81/81 80/80/80
f 90/90/90 93/93/93 84/84/84 83/83/83
f 11/11/11 94/94/94 87/87/87
f 93/93/93 95/95/95 85/85/85 84/84/84
f 92/92/92 89/89/89 82/82/82 81/81/81
f 96/96/96 91/91/91 80/80/80 86/86/86
f 94/94/94 96/96/96 86/86/86 87/87/87
f 97/97/97 98/98/98 91/91/91 96/96/96
f 11/11/11 99/99/99 57/57/57
f 100/100/100 101/101/101 90/90/90 89/89/89
f 101/101/101 102/102/102 93/93/93 90/90/90
f 103/103/103 100/100/100 89/89/89 92/92/92
f 98/98/98 103/103/103 92/92/92 91/91/91
f 102/102/102 104/104/104 95/95/95 93/93/93
f 11/11/11 105/105/105 94/94/94
f 105/105/105 97/97/97 96/96/96 94/94/94
f 106/106/106 107/107/107 97/97/97 105/105/105
f 108/108/108 109/109/109 103/103/103 98/98/98
f 11/11/11 106/106/106 105/105/105
f 109/109/109 110/110/110 100/100/100 103/103/103
f 107/107/107 108/108/108 98/98/98 97/97/97
f 111/111/111 112/112/112 102/102/102 101/101/101
f 112/112/112 113/113/113 104/104/104 102/102/102
f 114/114/114 115/115/115 107/107/107 106/106/106
f 99/99/99 74/74/74 58/58/58 57/57/57
f 110/110/110 111/111/111 101/101/101 100/100/100
f 116/116/116 117/117/117 113/113/113 112/112/112
f 118/118/118 119/119/119 111/111/111 110/110/110
f 11/11/11 88/88/88 99/99/99
f 11/11/11 114/114/114 106/106/106
f 88/88/88 72/72/72 74/74/74 99/99/99
f 115/115/115 120/120/120 108/108/108 107/107/107
f 120/120/120 121/121/121 109/109/109 108/108/108
f 121/121/121 118/118/118 110/110/110 109/109/109
f 119/119/119 116/116/116 112/112/112 111/111/111
f 122/122/122 123/123/123 119/119/119 118/118/118
f 11/11/11 124/124/124 114/114/114
f 125/125/125 122/122/122 118/118/118 121/121/121
f 126/126/126 125/125/125 121/121/121 120/120/120
f 127/127/127 128/128/128 117/117/117 116/116/116
f 123/123/123 127/127/127 116/116/116 119/119/119
f 129/129/129 126/126/126 120/120/120 115/115/115
f 130/130/130 131/131/131 128/128/128 127/127/127
f 132/132/132 133/133/133 123/123/123 122/122/122
f 73/73/73 79/79/79 67/67/67 66/66/66
f 124/124/124 129/129/129 115/115/115 114/114/114
f 134/134/134 135/135/135 125/125/125 126/126/126
f 136/136/136 134/134/134 126/126/126 129/129/129
f 137/137/137 136/136/136 129/129/129 124/124/124
f 133/133/133 130/130/130 127/127/127 123/123/123
f 78/78/78 75/75/75 70/70/70 69/69/69
f 3/3/3 5/5/5 8/8/8 9/9/9
f 14/14/14 16/16/16 19/19/19 20/20/20
f 6/6/6 15/15/15 21/21/21 7/7/7
f 11/11/11 137/137/137 124/124/124
f 135/135/135 132/132/132 122/122/122 125/125/125
f 8/8/8 7/7/7 138/138/138 139/139/139
f 10/10/10 9/9/9 140/140/140 141/141/141
f 7/7/7 21/21/21 142/142/142 138/138/138
f 19/19/19 18/18/18 143/143/143 144/144/144
f 21/21/21 20/20/20 145/145/145 142/142/142
f 11/11/11 10/10/10 141/141/141
f 9/9/9 8/8/8 139/139/139 140/140/140
f 20/20/20 19/19/19 144/144/144 145/145/145
f 142/142/142 145/145/145 146/146/146 147/147/147
f 11/11/11 141/141/141 148/148/148
f 140/140/140 139/139/139 149/149/149 150/150/150
f 145/145/145 144/144/144 151/151/151 146/146/146
f 139/139/139 138/138/138 152/152/152 149/149/149
f 141/141/141 140/140/140 150/150/150 148/148/148
f 138/138/138 142/142/142 147/147/147 152/152/152
f 144/144/144 143/143/143 153/153/153 151/151/151
f 149/149/149 152/152/152 154/154/154 155/155/155
f 148/148/148 150/150/150 156/156/156 157/157/157
f 152/152/152 147/147/147 158/158/158 154/154/154
f 151/151/151 153/153/153 159/159/159 160/160/160
f 147/147/147 146/146/146 161/161/161 158/158/158
f 11/11/11 148/148/148 157/157/157
f 150/150/150 149/149/149 155/155/155 156/156/156
f 146/146/146 151/151/151 160/160/160 161/161/161
f 158/158/158 161/161/161 162/162/162 163/163/163
f 11/11/11 157/157/157 164/164/164
f 156/156/156 155/155/155 165/165/165 166/166/166
f 161/161/161 160/160/160 167/167/167 162/162/162
f 155/155/155 154/154/154 168/168/168 165/165/165
f 157/157/157 156/156/156 166/166/166 164/164/164
f 154/154/154 158/158/158 163/163/163 168/168/168
f 160/160/160 159/159/159 169/169/169 167/167/167
f 165/165/165 168/168/168 170/170/170 171/171/171
f 164/164/164 166/166/166 172/172/172 173/173/173
f 168/168/168 163/163/163 174/174/174 170/170/170
f 167/167/167 169/169/169 175/175/175 176/176/176
f 163/163/163 162/162/162 177/177/177 174/174/174
f 11/11/11 164/164/164 173/173/173
f 166/166/166 165/165/165 171/171/171 172/172/172
f 162/162/162 167/167/167 176/176/176 177/177/177
f 174/174/174 177/177/177 178/178/178 179/179/179
f 11/11/11 173/173/173 180/180/180
f 172/172/172 171/171/171 181/181/181 182/182/182
f 177/177/177 176/176/176 183/183/183 178/178/178
f 171/171/171 170/170/170 184/184/184 181/181/181
f 173/173/173 172/172/172 182/182/182 180/180/180
f 170/170/170 174/174/174 179/179/179 184/184/184
f 176/176/176 175/175/175 185/185/185 183/183/183
f 180/180/180 182/182/182 186/186/186 187/187/187
f 184/184/184 179/179/179 188/188/188 189/189/189
f 183/183/183 185/185/185 190/190/190 191/191/191
f 179/179/179 178/178/178 192/192/192 188/188/188
f 11/11/11 180/180/180 187/187/187
f 182/182/182 181/181/181 193/193/193 186/186/186
f 178/178/178 183/183/183 191/191/191 192/192/192
f 181/181/181 184/184/184 189/189/189 193/193/193
f 11/11/11 187/187/187 194/194/194
f 186/186/186 193/193/193 195/195/195 196/196/196
f 192/192/192 191/191/191 197/197/197 198/198/198
f 193/193/193 189/189/189 199/199/199 195/195/195
f 187/187/187 186/186/186 196/196/196 194/194/194
f 189/189/189 188/188/188 200/200/200 199/199/199
f 191/191/191 190/190/190 201/201/201 197/197/197
f 188/188/188 192/192/192 198/198/198 200/200/200
f 199/199/199 200/200/200 202/202/202 203/203/203
f 197/197/197 201/201/201 204/204/204 205/205/205
f 200/200/200 198/198/198 206/206/206 202/202/202
f 11/11/11 194/194/194 207/207/207
f 196/196/196 195/195/195 208/208/208 209/209/209
f 198/198/198 197/197/197 205/205/205 206/206/206
f 195/195/195 199/199/199 203/203/203 208/208/208
f 194/194/194 196/196/196 209/209/209 207/207/207
f 209/209/209 208/208/208 210/210/210 211/211/211
f 206/206/206 205/205/205 212/212/212 213/213/213
f 208/208/208 203/203/203 214/214/214 210/210/210
f 207/207/207 209/209/209 211/211/211 215/215/215
f 203/203/203 202/202/202 216/216/216 214/214/214
f 205/205/205 204/204/204 217/217/217 212/212/212
f 202/202/202 206/206/206 213/213/213 216/216/216
f 11/11/11 207/207/207 215/215/215
f 214/214/214 216/216/216 218/218/218 219/219/219
f 212/212/212 217/217/217 220/220/220 221/221/221
f 216/216/216 213/213/213 222/222/222 218/218/218
f 11/11/11 215/215/215 223/223/223
f 211/211/211 210/210/210 224/224/224 225/225/225
f 213/213/213 212/212/212 221/221/221 222/222/222
f 210/210/210 214/214/214 219/219/219 224/224/224
f 215/215/215 211/211/211 225/225/225 223/223/223
f 224/224/224 219/219/219 226/226/226 227/227/227
f 223/223/223 225/225/225 228/228/228 229/229/229
f 219/219/219 218/218/218 230/230/230 226/226/226
f 221/221/221 220/220/220 231/231/231 232/232/232
f 218/218/218 222/222/222 233/233/233 230/230/230
f 11/11/11 223/223/223 229/229/229
f 225/225/225 224/224/224 227/227/227 228/228/228
f 222/222/222 221/221/221 232/232/232 233/233/233
f 230/230/230 233/233/233 234/234/234 235/235/235
f 11/11/11 229/229/229 236/236/236
f 228/228/228 227/227/227 237/237/237 238/238/238
f 233/233/233 232/232/232 239/239/239 234/234/234
f 227/227/227 226/226/226 240/240/240 237/237/237
f 229/229/229 228/228/228 238/238/238 236/236/236
f 226/226/226 230/230/230 235/235/235 240/240/240
f 232/232/232 231/231/231 241/241/241 239/239/239
f 237/237/237 240/240/240 242/242/242 243/243/243
f 236/236/236 238/238/238 244/244/244 245/245/245
f 240/240/240 235/235/235 246/246/246 242/242/242
f 239/239/239 241/241/241 247/247/247 248/248/248
f 235/235/235 234/234/234 249/249/249 246/246/246
f 11/11/11 236/236/236 245/245/245
f 238/238/238 237/237/237 243/243/243 244/244/244
f 234/234/234 239/239/239 248/248/248 249/249/249
f 246/246/246 249/249/249 250/250/250 251/251/251
f 11/11/11 245/245/245 252/252/252
f 244/244/244 243/243/243 253/253/253 254/254/254
f 249/249/249 248/248/248 255/255/255 250/250/250
f 243/243/243 242/242/242 256/256/256 253/253/253
f 245/245/245 244/244/244 254/254/254 252/252/252
f 242/242/242 246/246/246 251/251/251 256/256/256
f 248/248/248 247/247/247 257/257/257 255/255/255
f 253/253/253 256/256/256 135/135/135 134/134/134
f 252/252/252 254/254/254 136/136/136 137/137/137
f 256/256/256 251/251/251 132/132/132 135/135/135
f 255/255/255 257/257/257 131/131/131 130/130/130
f 251/251/251 250/250/250 133/133/133 132/132/132
f 11/11/11 252/252/252 137/137/137
f 254/254/254 253/253/253 134/134/134 136/136/136
f 250/250/250 255/255/255 130/130/130 133/133/133
